<svg preserveAspectRatio="xMidYMid" viewBox="0 0 512 143"  xmlns="http://www.w3.org/2000/svg"><path d="m56.1158844 48.5509565c-11.5845565 0-21.3615304 9.4163478-21.3615304 21.3659826-.0516113 5.681095 2.1823948 11.1445226 6.1997013 15.1618291 4.0173066 4.0173066 9.4807342 6.2513127 15.1618291 6.1997014 11.5845565 0 21.3570783-9.4163479 21.3570783-21.3615305 0-11.9496348-9.7725218-21.3659826-21.3570783-21.3659826zm-33.306713 21.0009044c0-18.1025392 14.8435478-32.946087 32.9460869-32.946087 18.098087 0 32.9416348 14.8435478 32.9416348 32.946087 0 1.0863304 0 2.5377391-.3606261 3.6240695-.3650782 3.2545392 2.1726609 5.7878261 5.4316522 5.7878261 5.4316522 0 6.1529043-6.8741565 6.1529043-9.4118956 0-24.2598957-19.9145739-44.1744696-44.1655652-44.1744696-24.2598956 0-44.1655652 19.9145739-44.1655652 44.1744696 0 24.2643478 19.9056696 44.1744691 44.1655652 44.1744691 13.0315131 0 24.6160696-5.431652 32.5810087-14.4829213l9.0468174 7.6043133c-9.7725217 11.589008-24.9766956 18.832966-41.2716522 18.832966-14.899515.046071-29.201825-5.853758-39.7353344-16.391446-10.5335094-10.5376888-16.42766484-24.8423378-16.37575784-39.7418333 0-30.7734261 24.97704014-56.1152 56.11554444-56.1152 30.7689739 0 55.7501216 25.3462261 55.7501216 56.1241043 0 12.3102609-5.792278 22.4523131-17.7374607 22.4523131-5.0710261 0-8.3255652-2.5377391-10.1376-5.0710261-5.7922783 9.4163478-16.2949565 15.569252-28.2401391 15.569252-8.746917.029701-17.1441512-3.4318557-23.3291911-9.6168957-6.18504-6.18504-9.6465971-14.5822741-9.6168959-23.3291911zm33.3022608-9.7769739c5.4316522 0 9.776974 4.3453217 9.776974 9.7769739 0 5.4316521-4.3453218 9.7770568-9.7725218 9.7770568-2.5962821.0106235-5.0893191-1.0160091-6.9251834-2.8518734s-2.8624969-4.3289013-2.8518734-6.9251834c0-5.4316522 4.3454046-9.7769739 9.7770568-9.7769739z" fill="#c02428"/><path d="m359.507189 47.4824348c6.811826 0 13.298011 2.5852702 17.947062 7.4557622l.801042.8831595v-6.887513h13.699339v58.7152695l-.02358 2.852599c-.176737 9.965086-1.388501 14.669302-5.020733 19.987053-5.048765 7.613218-14.064417 11.597913-24.157495 11.597913-17.286534 0-28.356698-10.75402-28.82984-28.185676l-.015795-1.171959h13.338713l.157708 2.007009c.328033 3.696681.769616 5.603665 2.006048 7.77887 2.524383 4.349774 7.933774 6.887513 13.343166 6.887513 9.777669 0 14.821369-5.782713 15.127052-17.68005l.014791-1.170455v-8.334469c-5.409391 6.161809-11.179409 8.699548-18.748104 8.699548-15.863096 0-27.763757-13.0537742-27.763757-31.174122 0-18.8505044 11.900661-32.2604522 28.124383-32.2604522zm54.441182 1.4514087v34.433113c0 10.1509565 3.606261 14.8613565 11.540035 14.8613565 8.004088 0 11.641932-4.3911457 11.8833-13.830635l.012909-1.0307215v-34.433113h13.703791v34.7981913c0 9.4208-1.442504 14.4962782-6.130643 19.5717562-5.044313 5.075479-11.535583 7.613218-19.469357 7.613218-7.573148 0-14.420591-2.537739-19.10873-7.613218-4.111138-4.821704-5.94402-9.6434084-6.11703-18.190683l-.013614-1.3810732v-34.7981913zm-173.781704-1.8120348c7.170343 0 12.079032 2.2776384 17.784788 7.7565892l.958864.9429586v-6.887513h13.703792v59.8060525h-13.703792v-6.157357c-6.486817 5.796731-11.174956 7.969391-18.387478 7.969391-16.584348 0-28.485009-13.4099474-28.485009-32.2604517 0-17.7597218 11.900661-31.1696696 28.128835-31.1696696zm-53.00313 0c12.987694 0 19.82549 7.9015851 20.17638 23.3759668l.014228 1.271268v38.0571825h-13.703791v-33.3467825c0-11.5979131-2.524383-15.947687-9.015652-15.947687-7.669229 0-10.960409 5.0910447-11.164763 16.9194415l-.010194 1.2053585v30.8090435h-13.699339v-33.3467826c0-10.8722087-2.885009-15.947687-9.015652-15.947687-7.673537 0-10.960687 5.0910447-11.164776 16.9194415l-.010181 1.2053585v30.8090436h-13.703791v-60.1711305h13.703791v5.4361043c5.044314-5.8011826 8.289948-7.2481391 14.059966-7.2481391 6.491269 0 12.256834 2.8983652 15.863095 8.6995478 4.327513-5.4405565 10.458157-8.6995478 17.670679-8.6995478zm110.329321 1.8120348v60.1711305h-13.703791v-60.1711305zm192.534261-1.8120348c14.411687 0 21.285563 7.9229551 21.620249 23.7729919l.012864 1.234869v36.9753044h-13.703791v-33.711861c0-11.597913-2.51993-15.5870608-11.174957-15.5870608-9.104059 0-12.426995 5.1299074-12.609445 19.0466195l-.008015 30.2523023h-13.703792v-60.1711305h13.343165v5.4361043c5.40494-5.4361043 9.732453-7.2481391 16.223722-7.2481391zm-166.217461-47.1218087v108.739896h-13.699339v-108.739896zm-81.123061 59.4409739c-9.371826.0044522-16.584347 8.3389218-16.584347 19.2155826 0 11.5979131 6.851895 19.5717565 16.584347 19.5717565 10.097531 0 16.944974-7.9738434 16.944974-19.5717565 0-10.8967631-6.438734-18.7290569-16.03607-19.1937351l-.908904-.0173953zm119.344974 0c-10.09753.0044522-16.5888 7.9782957-16.5888 19.5762087 0 11.5979131 6.49127 19.2111304 16.5888 19.2111304 9.732453 0 16.584348-7.9738434 16.584348-19.5717565 0-10.8967631-6.10382-18.7290569-15.676798-19.1937351zm-71.39506-44.2189913c2.408807-.0181303 4.719311.9320467 6.415303 2.6364137 1.695991 1.704367 2.634775 4.0195231 2.604801 6.4237602.03118 2.405004-.90707 4.7213164-2.603195 6.4266545-1.696124 1.7053381-4.00732 2.656123-6.412457 2.6379716-5.048766 0-9.015652-3.9891478-9.015652-9.0646261-.029956-2.4034594.90822-4.7179267 2.603243-6.4221609 1.506686-1.5148749 3.498766-2.4343704 5.610965-2.6081112l.801444-.0299018z"/></svg>